{
  "accessors": [
    {
      "bufferView": 2,
      "componentType": 5126,
      "count": 24033,
      "max": [
        7.204868793487549,
        3.6933984756469727,
        1.009150505065918
      ],
      "min": [
        -8.400762557983398,
        -3.0911600589752197,
        -1.5403194427490234
      ],
      "type": "VEC3"
    },
    {
      "bufferView": 2,
      "byteOffset": 288396,
      "componentType": 5126,
      "count": 24033,
      "max": [
        0.8846887946128845,
        0.9998869299888611,
        0.9999978542327881
      ],
      "min": [
        -0.9880907535552979,
        -0.999785840511322,
        -0.9812358021736145
      ],
      "type": "VEC3"
    },
    {
      "bufferView": 1,
      "componentType": 5126,
      "count": 24033,
      "max": [
        0.45887500047683716,
        0.9999513030052185
      ],
      "min": [
        0.0,
        0.0
      ],
      "type": "VEC2"
    },
    {
      "bufferView": 0,
      "componentType": 5125,
      "count": 140739,
      "type": "SCALAR"
    },
    {
      "bufferView": 2,
      "byteOffset": 576792,
      "componentType": 5126,
      "count": 17339,
      "max": [
        8.368370056152344,
        3.6962335109710693,
        1.5574620962142944
      ],
      "min": [
        -8.432867050170898,
        -3.084303140640259,
        -1.2994213104248047
      ],
      "type": "VEC3"
    },
    {
      "bufferView": 2,
      "byteOffset": 784860,
      "componentType": 5126,
      "count": 17339,
      "max": [
        0.9993584156036377,
        0.9992580413818359,
        0.9999897480010986
      ],
      "min": [
        -0.9931284785270691,
        -0.9991890788078308,
        -0.9975715279579163
      ],
      "type": "VEC3"
    },
    {
      "bufferView": 1,
      "byteOffset": 192264,
      "componentType": 5126,
      "count": 17339,
      "max": [
        0.9998191595077515,
        0.9540188312530518
      ],
      "min": [
        0.0001474320888519287,
        0.00019794702529907227
      ],
      "type": "VEC2"
    },
    {
      "bufferView": 0,
      "byteOffset": 562956,
      "componentType": 5125,
      "count": 98946,
      "type": "SCALAR"
    }
  ],
  "asset": {
    "extras": {
      "author": "matousekfoto (https://sketchfab.com/matousekfoto)",
      "license": "CC-BY-4.0 (http://creativecommons.org/licenses/by/4.0/)",
      "source": "https://sketchfab.com/3d-models/scratched-wall-a007045a63af4f9e9b692a853bb10831",
      "title": "Scratched wall"
    },
    "generator": "Sketchfab-14.36.1",
    "version": "2.0"
  },
  "bufferViews": [
    {
      "buffer": 0,
      "byteLength": 958740,
      "name": "floatBufferViews",
      "target": 34963
    },
    {
      "buffer": 0,
      "byteLength": 330976,
      "byteOffset": 958740,
      "byteStride": 8,
      "name": "floatBufferViews",
      "target": 34962
    },
    {
      "buffer": 0,
      "byteLength": 992928,
      "byteOffset": 1289716,
      "byteStride": 12,
      "name": "floatBufferViews",
      "target": 34962
    }
  ],
  "buffers": [
    {
      "byteLength": 2282644,
      "uri": "scene.bin"
    }
  ],
  "extensionsUsed": [
    "KHR_materials_unlit"
  ],
  "images": [
    {
      "uri": "textures/material0_baseColor.png"
    },
    {
      "uri": "textures/material1_baseColor.png"
    }
  ],
  "materials": [
    {
      "doubleSided": true,
      "extensions": {
        "KHR_materials_unlit": {}
      },
      "name": "material0",
      "pbrMetallicRoughness": {
        "baseColorTexture": {
          "index": 0
        },
        "metallicFactor": 0.0
      }
    },
    {
      "doubleSided": true,
      "extensions": {
        "KHR_materials_unlit": {}
      },
      "name": "material1",
      "pbrMetallicRoughness": {
        "baseColorTexture": {
          "index": 1
        },
        "metallicFactor": 0.0
      }
    }
  ],
  "meshes": [
    {
      "name": "Model_material0_0",
      "primitives": [
        {
          "attributes": {
            "NORMAL": 1,
            "POSITION": 0,
            "TEXCOORD_0": 2
          },
          "indices": 3,
          "material": 0,
          "mode": 4
        }
      ]
    },
    {
      "name": "Model_material1_0",
      "primitives": [
        {
          "attributes": {
            "NORMAL": 5,
            "POSITION": 4,
            "TEXCOORD_0": 6
          },
          "indices": 7,
          "material": 1,
          "mode": 4
        }
      ]
    }
  ],
  "nodes": [
    {
      "children": [
        1
      ],
      "matrix": [
        0.28350654234553474,
        -0.002865396035937987,
        -0.03533399688774752,
        0.0,
        0.0007499988260013177,
        0.28520050642577743,
        -0.017110513489843986,
        0.0,
        0.03544205585608129,
        0.016885546391769028,
        0.28300424546660885,
        0.0,
        0.0,
        0.0,
        0.0,
        1.0
      ],
      "name": "Sketchfab_model"
    },
    {
      "children": [
        2
      ],
      "matrix": [
        0.009999999776482582,
        0.0,
        0.0,
        0.0,
        0.0,
        0.0,
        0.009999999776482582,
        0.0,
        0.0,
        -0.009999999776482582,
        0.0,
        0.0,
        0.0,
        0.0,
        0.0,
        1.0
      ],
      "name": "scratched-wall.fbx"
    },
    {
      "children": [
        3
      ],
      "name": "RootNode"
    },
    {
      "children": [
        4,
        5
      ],
      "matrix": [
        100.0,
        0.0,
        0.0,
        0.0,
        0.0,
        -1.629206793918314e-05,
        -99.99999999999868,
        0.0,
        0.0,
        99.99999999999868,
        -1.629206793918314e-05,
        0.0,
        0.0,
        0.0,
        0.0,
        1.0
      ],
      "name": "Model"
    },
    {
      "mesh": 0,
      "name": "Model_material0_0"
    },
    {
      "mesh": 1,
      "name": "Model_material1_0"
    }
  ],
  "samplers": [
    {
      "magFilter": 9729,
      "minFilter": 9987,
      "wrapS": 10497,
      "wrapT": 10497
    }
  ],
  "scene": 0,
  "scenes": [
    {
      "name": "Sketchfab_Scene",
      "nodes": [
        0
      ]
    }
  ],
  "textures": [
    {
      "sampler": 0,
      "source": 0
    },
    {
      "sampler": 0,
      "source": 1
    }
  ]
}
