{
  "accessors": [
    {
      "bufferView": 2,
      "componentType": 5126,
      "count": 4031,
      "max": [
        10.550702095031738,
        5.666285037994385,
        4.8836259841918945
      ],
      "min": [
        -10.550700187683105,
        -0.7423620223999023,
        -5.379054069519043
      ],
      "type": "VEC3"
    },
    {
      "bufferView": 2,
      "byteOffset": 48372,
      "componentType": 5126,
      "count": 4031,
      "max": [
        1.0,
        0.9068958759307861,
        1.0
      ],
      "min": [
        -1.0,
        -0.9999485015869141,
        -1.0
      ],
      "type": "VEC3"
    },
    {
      "bufferView": 3,
      "componentType": 5126,
      "count": 4031,
      "max": [
        0.9999846816062927,
        0.9964069128036499,
        1.0,
        1.0
      ],
      "min": [
        -0.9998430609703064,
        -0.9987079501152039,
        -1.0,
        1.0
      ],
      "type": "VEC4"
    },
    {
      "bufferView": 1,
      "componentType": 5126,
      "count": 4031,
      "max": [
        0.9979979991912842,
        0.9498639702796936
      ],
      "min": [
        0.0020020001102238894,
        0.0019049999536946416
      ],
      "type": "VEC2"
    },
    {
      "bufferView": 0,
      "componentType": 5125,
      "count": 10803,
      "type": "SCALAR"
    }
  ],
  "asset": {
    "extras": {
      "author": "tiborjanas.art (https://sketchfab.com/tiborjanas.art)",
      "license": "CC-BY-4.0 (http://creativecommons.org/licenses/by/4.0/)",
      "source": "https://sketchfab.com/3d-models/ancient-roman-triangle-roof-top-dbcd6dc1180d4060a7166ae4d2d544cb",
      "title": "Ancient Roman Triangle Roof Top"
    },
    "generator": "Sketchfab-15.39.0",
    "version": "2.0"
  },
  "bufferViews": [
    {
      "buffer": 0,
      "byteLength": 43212,
      "name": "floatBufferViews",
      "target": 34963
    },
    {
      "buffer": 0,
      "byteLength": 32248,
      "byteOffset": 43212,
      "byteStride": 8,
      "name": "floatBufferViews",
      "target": 34962
    },
    {
      "buffer": 0,
      "byteLength": 96744,
      "byteOffset": 75460,
      "byteStride": 12,
      "name": "floatBufferViews",
      "target": 34962
    },
    {
      "buffer": 0,
      "byteLength": 64496,
      "byteOffset": 172204,
      "byteStride": 16,
      "name": "floatBufferViews",
      "target": 34962
    }
  ],
  "buffers": [
    {
      "byteLength": 236700,
      "uri": "scene.bin"
    }
  ],
  "images": [
    {
      "uri": "textures/lambert1_1001_baseColor.jpeg"
    },
    {
      "uri": "textures/lambert1_1001_metallicRoughness.png"
    },
    {
      "uri": "textures/lambert1_1001_normal.png"
    }
  ],
  "materials": [
    {
      "doubleSided": true,
      "name": "lambert1_1001",
      "normalTexture": {
        "index": 2
      },
      "occlusionTexture": {
        "index": 1
      },
      "pbrMetallicRoughness": {
        "baseColorTexture": {
          "index": 0
        },
        "metallicRoughnessTexture": {
          "index": 1
        }
      }
    }
  ],
  "meshes": [
    {
      "name": "defaultMaterial",
      "primitives": [
        {
          "attributes": {
            "NORMAL": 1,
            "POSITION": 0,
            "TANGENT": 2,
            "TEXCOORD_0": 3
          },
          "indices": 4,
          "material": 0,
          "mode": 4
        }
      ]
    }
  ],
  "nodes": [
    {
      "children": [
        1
      ],
      "matrix": [
        1.0,
        0.0,
        0.0,
        0.0,
        0.0,
        2.220446049250313e-16,
        -1.0,
        0.0,
        0.0,
        1.0,
        2.220446049250313e-16,
        0.0,
        0.0,
        0.0,
        0.0,
        1.0
      ],
      "name": "Sketchfab_model"
    },
    {
      "children": [
        2
      ],
      "matrix": [
        1.0,
        0.0,
        0.0,
        0.0,
        0.0,
        -4.371139006309477e-08,
        0.999999999999999,
        0.0,
        0.0,
        -0.999999999999999,
        -4.371139006309477e-08,
        0.0,
        0.0,
        0.0,
        0.0,
        1.0
      ],
      "name": "Collada visual scene group"
    },
    {
      "children": [
        3
      ],
      "name": "Temp_Roof1:sweep100"
    },
    {
      "mesh": 0,
      "name": "defaultMaterial"
    }
  ],
  "samplers": [
    {
      "magFilter": 9729,
      "minFilter": 9987,
      "wrapS": 10497,
      "wrapT": 10497
    }
  ],
  "scene": 0,
  "scenes": [
    {
      "name": "Sketchfab_Scene",
      "nodes": [
        0
      ]
    }
  ],
  "textures": [
    {
      "sampler": 0,
      "source": 0
    },
    {
      "sampler": 0,
      "source": 1
    },
    {
      "sampler": 0,
      "source": 2
    }
  ]
}
