{
  "accessors": [
    {
      "bufferView": 2,
      "componentType": 5126,
      "count": 13034,
      "max": [
        6.187814235687256,
        6.008011817932129,
        2.801409959793091
      ],
      "min": [
        -6.1704020500183105,
        3.3033831119537354,
        -2.8399360179901123
      ],
      "type": "VEC3"
    },
    {
      "bufferView": 2,
      "byteOffset": 156408,
      "componentType": 5126,
      "count": 13034,
      "max": [
        1.0,
        1.0,
        1.0
      ],
      "min": [
        -1.0,
        -1.0,
        -1.0
      ],
      "type": "VEC3"
    },
    {
      "bufferView": 3,
      "componentType": 5126,
      "count": 13034,
      "max": [
        1.0,
        1.0,
        1.0,
        1.0
      ],
      "min": [
        -1.0,
        -1.0,
        -1.0,
        1.0
      ],
      "type": "VEC4"
    },
    {
      "bufferView": 1,
      "componentType": 5126,
      "count": 13034,
      "max": [
        0.9999979734420776,
        0.9915869832038879
      ],
      "min": [
        1.9999999949504854e-06,
        1.9999999949504854e-06
      ],
      "type": "VEC2"
    },
    {
      "bufferView": 0,
      "componentType": 5125,
      "count": 66816,
      "type": "SCALAR"
    },
    {
      "bufferView": 2,
      "byteOffset": 312816,
      "componentType": 5126,
      "count": 6972,
      "max": [
        9.131525039672852,
        7.239431858062744,
        6.12523889541626
      ],
      "min": [
        -9.114113807678223,
        1.1929399967193604,
        -6.163765907287598
      ],
      "type": "VEC3"
    },
    {
      "bufferView": 2,
      "byteOffset": 396480,
      "componentType": 5126,
      "count": 6972,
      "max": [
        1.0,
        1.0,
        1.0
      ],
      "min": [
        -1.0,
        -1.0,
        -1.0
      ],
      "type": "VEC3"
    },
    {
      "bufferView": 3,
      "byteOffset": 208544,
      "componentType": 5126,
      "count": 6972,
      "max": [
        1.0,
        0.9999977946281433,
        0.999998927116394,
        1.0
      ],
      "min": [
        -0.9999953508377075,
        -0.9999995231628418,
        -0.999990701675415,
        -1.0
      ],
      "type": "VEC4"
    },
    {
      "bufferView": 1,
      "byteOffset": 104272,
      "componentType": 5126,
      "count": 6972,
      "max": [
        0.9999979734420776,
        0.9626129865646362
      ],
      "min": [
        1.9999999949504854e-06,
        1.9999999949504854e-06
      ],
      "type": "VEC2"
    },
    {
      "bufferView": 0,
      "byteOffset": 267264,
      "componentType": 5125,
      "count": 38172,
      "type": "SCALAR"
    },
    {
      "bufferView": 2,
      "byteOffset": 480144,
      "componentType": 5126,
      "count": 60610,
      "max": [
        9.041494369506836,
        6.170053005218506,
        6.058621883392334
      ],
      "min": [
        -9.024083137512207,
        -0.027451999485492706,
        -6.097148895263672
      ],
      "type": "VEC3"
    },
    {
      "bufferView": 2,
      "byteOffset": 1207464,
      "componentType": 5126,
      "count": 60610,
      "max": [
        1.0,
        0.9988276362419128,
        1.0
      ],
      "min": [
        -1.0,
        -1.0,
        -1.0
      ],
      "type": "VEC3"
    },
    {
      "bufferView": 3,
      "byteOffset": 320096,
      "componentType": 5126,
      "count": 60610,
      "max": [
        0.9999998807907104,
        1.0,
        1.0,
        1.0
      ],
      "min": [
        -1.0,
        -0.9999997019767761,
        -1.0,
        -1.0
      ],
      "type": "VEC4"
    },
    {
      "bufferView": 1,
      "byteOffset": 160048,
      "componentType": 5126,
      "count": 60610,
      "max": [
        0.9999989867210388,
        0.9778919816017151
      ],
      "min": [
        0.0,
        0.0
      ],
      "type": "VEC2"
    },
    {
      "bufferView": 0,
      "byteOffset": 419952,
      "componentType": 5125,
      "count": 337968,
      "type": "SCALAR"
    },
    {
      "bufferView": 2,
      "byteOffset": 1934784,
      "componentType": 5126,
      "count": 11708,
      "max": [
        8.965899467468262,
        6.000000953674316,
        5.950204849243164
      ],
      "min": [
        -8.948487281799316,
        -0.06948799639940262,
        -5.988731861114502
      ],
      "type": "VEC3"
    },
    {
      "bufferView": 2,
      "byteOffset": 2075280,
      "componentType": 5126,
      "count": 11708,
      "max": [
        1.0,
        1.0,
        0.9999357461929321
      ],
      "min": [
        -1.0,
        -0.9318609833717346,
        -0.9999357461929321
      ],
      "type": "VEC3"
    },
    {
      "bufferView": 3,
      "byteOffset": 1289856,
      "componentType": 5126,
      "count": 11708,
      "max": [
        0.9996942281723022,
        0.9999706745147705,
        0.9999982118606567,
        1.0
      ],
      "min": [
        -0.9992775917053223,
        -0.9999586939811707,
        -0.968835175037384,
        1.0
      ],
      "type": "VEC4"
    },
    {
      "bufferView": 1,
      "byteOffset": 644928,
      "componentType": 5126,
      "count": 11708,
      "max": [
        0.9964969754219055,
        0.9942200183868408
      ],
      "min": [
        0.0,
        0.0
      ],
      "type": "VEC2"
    },
    {
      "bufferView": 0,
      "byteOffset": 1771824,
      "componentType": 5125,
      "count": 35136,
      "type": "SCALAR"
    }
  ],
  "asset": {
    "extras": {
      "author": "tiborjanas.art (https://sketchfab.com/tiborjanas.art)",
      "license": "CC-BY-4.0 (http://creativecommons.org/licenses/by/4.0/)",
      "source": "https://sketchfab.com/3d-models/realistic-feudal-japan-roof-4e44ec50ba0f45a5b774c8921a6498f9",
      "title": "Realistic Feudal Japan Roof"
    },
    "generator": "Sketchfab-15.39.0",
    "version": "2.0"
  },
  "bufferViews": [
    {
      "buffer": 0,
      "byteLength": 1912368,
      "name": "floatBufferViews",
      "target": 34963
    },
    {
      "buffer": 0,
      "byteLength": 738592,
      "byteOffset": 1912368,
      "byteStride": 8,
      "name": "floatBufferViews",
      "target": 34962
    },
    {
      "buffer": 0,
      "byteLength": 2215776,
      "byteOffset": 2650960,
      "byteStride": 12,
      "name": "floatBufferViews",
      "target": 34962
    },
    {
      "buffer": 0,
      "byteLength": 1477184,
      "byteOffset": 4866736,
      "byteStride": 16,
      "name": "floatBufferViews",
      "target": 34962
    }
  ],
  "buffers": [
    {
      "byteLength": 6343920,
      "uri": "scene.bin"
    }
  ],
  "images": [
    {
      "uri": "textures/Roof_Base_1001_baseColor.jpeg"
    },
    {
      "uri": "textures/Roof_Base_1001_metallicRoughness.png"
    },
    {
      "uri": "textures/Roof_Base_1001_normal.png"
    },
    {
      "uri": "textures/Roof_Round_Long_1001_baseColor.jpeg"
    },
    {
      "uri": "textures/Roof_Round_Long_1001_metallicRoughness.png"
    },
    {
      "uri": "textures/Roof_Round_Long_1001_normal.png"
    },
    {
      "uri": "textures/Roof_Woods_1001_baseColor.jpeg"
    },
    {
      "uri": "textures/Roof_Woods_1001_metallicRoughness.png"
    },
    {
      "uri": "textures/Roof_Woods_1001_normal.png"
    },
    {
      "uri": "textures/Roof_Round_Small_1001_baseColor.jpeg"
    },
    {
      "uri": "textures/Roof_Round_Small_1001_metallicRoughness.png"
    },
    {
      "uri": "textures/Roof_Round_Small_1001_normal.png"
    }
  ],
  "materials": [
    {
      "doubleSided": true,
      "name": "Roof_Base_1001",
      "normalTexture": {
        "index": 2
      },
      "occlusionTexture": {
        "index": 1
      },
      "pbrMetallicRoughness": {
        "baseColorTexture": {
          "index": 0
        },
        "metallicRoughnessTexture": {
          "index": 1
        }
      }
    },
    {
      "doubleSided": true,
      "name": "Roof_Round_Long_1001",
      "normalTexture": {
        "index": 5
      },
      "occlusionTexture": {
        "index": 4
      },
      "pbrMetallicRoughness": {
        "baseColorTexture": {
          "index": 3
        },
        "metallicRoughnessTexture": {
          "index": 4
        }
      }
    },
    {
      "doubleSided": true,
      "name": "Roof_Woods_1001",
      "normalTexture": {
        "index": 8
      },
      "occlusionTexture": {
        "index": 7
      },
      "pbrMetallicRoughness": {
        "baseColorTexture": {
          "index": 6
        },
        "metallicRoughnessTexture": {
          "index": 7
        }
      }
    },
    {
      "doubleSided": true,
      "name": "Roof_Round_Small_1001",
      "normalTexture": {
        "index": 11
      },
      "occlusionTexture": {
        "index": 10
      },
      "pbrMetallicRoughness": {
        "baseColorTexture": {
          "index": 9
        },
        "metallicRoughnessTexture": {
          "index": 10
        }
      }
    }
  ],
  "meshes": [
    {
      "name": "defaultMaterial",
      "primitives": [
        {
          "attributes": {
            "NORMAL": 1,
            "POSITION": 0,
            "TANGENT": 2,
            "TEXCOORD_0": 3
          },
          "indices": 4,
          "material": 3,
          "mode": 4
        }
      ]
    },
    {
      "name": "defaultMaterial",
      "primitives": [
        {
          "attributes": {
            "NORMAL": 6,
            "POSITION": 5,
            "TANGENT": 7,
            "TEXCOORD_0": 8
          },
          "indices": 9,
          "material": 2,
          "mode": 4
        }
      ]
    },
    {
      "name": "defaultMaterial",
      "primitives": [
        {
          "attributes": {
            "NORMAL": 11,
            "POSITION": 10,
            "TANGENT": 12,
            "TEXCOORD_0": 13
          },
          "indices": 14,
          "material": 1,
          "mode": 4
        }
      ]
    },
    {
      "name": "defaultMaterial",
      "primitives": [
        {
          "attributes": {
            "NORMAL": 16,
            "POSITION": 15,
            "TANGENT": 17,
            "TEXCOORD_0": 18
          },
          "indices": 19,
          "material": 0,
          "mode": 4
        }
      ]
    }
  ],
  "nodes": [
    {
      "children": [
        1
      ],
      "matrix": [
        1.0,
        0.0,
        0.0,
        0.0,
        0.0,
        2.220446049250313e-16,
        -1.0,
        0.0,
        0.0,
        1.0,
        2.220446049250313e-16,
        0.0,
        0.0,
        0.0,
        0.0,
        1.0
      ],
      "name": "Sketchfab_model"
    },
    {
      "children": [
        2,
        4,
        6,
        8
      ],
      "matrix": [
        1.0,
        0.0,
        0.0,
        0.0,
        0.0,
        -4.371139006309477e-08,
        0.999999999999999,
        0.0,
        0.0,
        -0.999999999999999,
        -4.371139006309477e-08,
        0.0,
        0.0,
        0.0,
        0.0,
        1.0
      ],
      "name": "Collada visual scene group"
    },
    {
      "children": [
        3
      ],
      "name": "polySurface264"
    },
    {
      "mesh": 0,
      "name": "defaultMaterial"
    },
    {
      "children": [
        5
      ],
      "name": "polySurface267"
    },
    {
      "mesh": 1,
      "name": "defaultMaterial"
    },
    {
      "children": [
        7
      ],
      "name": "polySurface426"
    },
    {
      "mesh": 2,
      "name": "defaultMaterial"
    },
    {
      "children": [
        9
      ],
      "name": "polySurface262"
    },
    {
      "children": [
        10
      ],
      "name": "polySurface423"
    },
    {
      "mesh": 3,
      "name": "defaultMaterial"
    }
  ],
  "samplers": [
    {
      "magFilter": 9729,
      "minFilter": 9987,
      "wrapS": 10497,
      "wrapT": 10497
    }
  ],
  "scene": 0,
  "scenes": [
    {
      "name": "Sketchfab_Scene",
      "nodes": [
        0
      ]
    }
  ],
  "textures": [
    {
      "sampler": 0,
      "source": 0
    },
    {
      "sampler": 0,
      "source": 1
    },
    {
      "sampler": 0,
      "source": 2
    },
    {
      "sampler": 0,
      "source": 3
    },
    {
      "sampler": 0,
      "source": 4
    },
    {
      "sampler": 0,
      "source": 5
    },
    {
      "sampler": 0,
      "source": 6
    },
    {
      "sampler": 0,
      "source": 7
    },
    {
      "sampler": 0,
      "source": 8
    },
    {
      "sampler": 0,
      "source": 9
    },
    {
      "sampler": 0,
      "source": 10
    },
    {
      "sampler": 0,
      "source": 11
    }
  ]
}
